<?xml version="1.0" encoding="UTF-8"?>
<svg version="1.1" xmlns="http://www.w3.org/2000/svg" xmlns:xlink="http://www.w3.org/1999/xlink">
<defs>
<filter id="filter0_d_124_99" x="0" y="0" width="98" height="98" filterUnits="userSpaceOnUse" color-interpolation-filters="sRGB"><feFlood flood-opacity="0" result="BackgroundImageFix"/><feColorMatrix in="SourceAlpha" values="0 0 0 0 0 0 0 0 0 0 0 0 0 0 0 0 0 0 127 0" result="hardAlpha"/><feOffset dy="4"/><feGaussianBlur stdDeviation="2"/><feComposite in2="hardAlpha" operator="out"/><feColorMatrix values="0 0 0 0 0 0 0 0 0 0 0 0 0 0 0 0 0 0 0.25 0"/><feBlend in2="BackgroundImageFix" result="effect1_dropShadow_124_99"/><feBlend in="SourceGraphic" in2="effect1_dropShadow_124_99" result="shape"/></filter><filter id="filter1_d_124_99" x="18.239" y="31.117" width="65.88" height="47.935" filterUnits="userSpaceOnUse" color-interpolation-filters="sRGB"><feFlood flood-opacity="0" result="BackgroundImageFix"/><feColorMatrix in="SourceAlpha" values="0 0 0 0 0 0 0 0 0 0 0 0 0 0 0 0 0 0 127 0" result="hardAlpha"/><feOffset dy="4"/><feGaussianBlur stdDeviation="2"/><feComposite in2="hardAlpha" operator="out"/><feColorMatrix values="0 0 0 0 0 0 0 0 0 0 0 0 0 0 0 0 0 0 0.25 0"/><feBlend in2="BackgroundImageFix" result="effect1_dropShadow_124_99"/><feBlend in="SourceGraphic" in2="effect1_dropShadow_124_99" result="shape"/></filter><filter id="filter2_d_124_99" x="5.848" y="14.58" width="68.696" height="44.935" filterUnits="userSpaceOnUse" color-interpolation-filters="sRGB"><feFlood flood-opacity="0" result="BackgroundImageFix"/><feColorMatrix in="SourceAlpha" values="0 0 0 0 0 0 0 0 0 0 0 0 0 0 0 0 0 0 127 0" result="hardAlpha"/><feOffset dy="4"/><feGaussianBlur stdDeviation="2"/><feComposite in2="hardAlpha" operator="out"/><feColorMatrix values="0 0 0 0 0 0 0 0 0 0 0 0 0 0 0 0 0 0 0.25 0"/><feBlend in2="BackgroundImageFix" result="effect1_dropShadow_124_99"/><feBlend in="SourceGraphic" in2="effect1_dropShadow_124_99" result="shape"/></filter>
</defs>
<symbol id="i-button-arrow" viewBox="0 0 10 10" fill="none" xmlns="http://www.w3.org/2000/svg"><path d="M5 9l4-4m0 0L5 1m4 4H1" stroke="currentColor" stroke-width="1.5" stroke-linecap="round" stroke-linejoin="round"/></symbol>
<symbol id="i-close" fill="currentColor" viewBox="0 0 512 512" xmlns="http://www.w3.org/2000/svg"><path d="M443.6 387.1L312.4 255.4l131.5-130c5.4-5.4 5.4-14.2 0-19.6l-37.4-37.6c-2.6-2.6-6.1-4-9.8-4-3.7 0-7.2 1.5-9.8 4L256 197.8 124.9 68.3c-2.6-2.6-6.1-4-9.8-4-3.7 0-7.2 1.5-9.8 4L68 105.9c-5.4 5.4-5.4 14.2 0 19.6l131.5 130L68.4 387.1c-2.6 2.6-4.1 6.1-4.1 9.8 0 3.7 1.4 7.2 4.1 9.8l37.4 37.6c2.7 2.7 6.2 4.1 9.8 4.1 3.5 0 7.1-1.3 9.8-4.1L256 313.1l130.7 131.1c2.7 2.7 6.2 4.1 9.8 4.1 3.5 0 7.1-1.3 9.8-4.1l37.4-37.6c2.6-2.6 4.1-6.1 4.1-9.8-.1-3.6-1.6-7.1-4.2-9.7z"/></symbol>
<symbol id="i-coins" viewBox="0 0 199 200" fill="none" xmlns="http://www.w3.org/2000/svg"><path d="M196 85c0 10.217-24.624 18.5-55 18.5S86 95.217 86 85M196 113c0 10.217-24.624 18.5-55 18.5s-55-8.283-55-18.5" stroke="currentColor" stroke-width="6" stroke-linejoin="round"/><path d="M141 159.5c30.376 0 55-8.283 55-18.5V58M86 58v73M113 21.5C113 31.717 88.376 40 58 40S3 31.717 3 21.5 27.624 3 58 3s55 8.283 55 18.5zm0 0v21" stroke="currentColor" stroke-width="6" stroke-linejoin="round"/><ellipse cx="141" cy="58.5" rx="55" ry="18.5" stroke="currentColor" stroke-width="6" stroke-linejoin="round"/><path d="M141 150.5c0 10.217-24.624 18.5-55 18.5s-55-8.283-55-18.5m110 0c0-10.217-24.624-18.5-55-18.5s-55 8.283-55 18.5m110 0v28m-110-28v28M141 178c0 10.217-24.624 18.5-55 18.5s-55-8.283-55-18.5M3 49c0 10.217 24.624 18.5 55 18.5 10.225 0 19.798-.939 28-2.573M3 81c0 10.217 24.624 18.5 55 18.5 10.225 0 19.798-.939 28-2.573" stroke="currentColor" stroke-width="6" stroke-linejoin="round"/><path d="M86 128.927c-8.202 1.634-17.775 2.573-28 2.573-30.376 0-55-8.283-55-18.5V21.5" stroke="currentColor" stroke-width="6" stroke-linejoin="round"/></symbol>
<symbol id="i-docs" viewBox="0 0 187 201" fill="none" xmlns="http://www.w3.org/2000/svg"><path d="M130 189v9H3.5V21.5H13" stroke="currentColor" stroke-width="6" stroke-linejoin="round"/><path d="M138 179.975V189H13V12h9.387" stroke="currentColor" stroke-width="6" stroke-linejoin="round"/><path d="M130 3H23v176.5h126.5v-157M130 3l19.5 19.5M130 3v19.5h19.5M108.5 81H128 44h11M108.5 97H128 44h11M108.5 113H128 44h11" stroke="currentColor" stroke-width="6" stroke-linejoin="round"/><path d="M55 129H44h44-3.5m26.5 23.5V150v7m10 4.5v2.5-7m3 0h4.5-7.5m0 0v-7l-10 14v-7m-6 0h-2 8M57.5 44.5V29v30h12H44h2.5M47 43.5h2-9.5H42M73 43.5h2-9.5H68M68.5 33h2H61h2.5M52.5 33h2H45h2.5M167.5 156l6-7.5V141m-6 15l-6-7.5V141m6 15v6.5-2.5m-6-88.5V39c1.568-4.287 2.935-5.473 6-6 5.285.967 6.108 2.508 6 6v4m-12 28.5h12m-12 0V141m12-69.5V141m0-69.5V43m-12 98h12M184 81.5V90 48c-.739-2.889-1.801-4.009-5-5h-5.5" stroke="currentColor" stroke-width="6" stroke-linejoin="round"/></symbol>
<symbol id="i-family" viewBox="0 0 204 202" fill="none" xmlns="http://www.w3.org/2000/svg"><path d="M101.5 118.5v6V111m0 0h-72v13.5-6m72-7.5h72v13.5-6m-72-7.5V51m0 0H120h-7.5m-11 0H83h6.5M117 152c0 8.284-6.716 15-15 15-8.284 0-15-6.716-15-15 0-8.284 6.716-15 15-15 8.284 0 15 6.716 15 15zM189 152c0 8.284-6.716 15-15 15-8.284 0-15-6.716-15-15 0-8.284 6.716-15 15-15 8.284 0 15 6.716 15 15zM46 152c0 8.284-6.716 15-15 15-8.284 0-15-6.716-15-15 0-8.284 6.716-15 15-15 8.284 0 15 6.716 15 15zM54.5 175.5c-18.745 5.015-29.255 5.6-48 0l-3.5 23h54l-2.5-23zM70.5 55c-18.745 5.015-29.255 5.6-48 0L19 78h54l-2.5-23zM198.5 176c-18.745 5.015-29.255 5.6-48 0l-3.5 23h54l-2.5-23zM126.5 176c-18.745 5.015-29.255 5.6-48 0L75 199h54l-2.5-23zM66 24c0 11.598-9.402 21-21 21s-21-9.402-21-21S33.402 3 45 3s21 9.402 21 21zM127.5 34.5h-2 3.5c3.923.024 6.043-.79 9.695-3.5m0 0c2.883 8.156 10.661 14 19.805 14 8.838 0 16.401-5.46 19.5-13.19M138.695 31a20.963 20.963 0 01-1.195-7c0-11.598 9.402-21 21-21s21 9.402 21 21c0 2.76-.532 5.395-1.5 7.81m0 0c2.63 1.593 4.201 2.309 7.5 2.69 1.953.217 3.047.209 5 0H186m-51 19c18.55 7.823 28.95 8.44 47.5 0 1.504 3.393 1.847 5.379 2 9V75H132V62.5c.341-3.89.807-5.947 3-9z" stroke="currentColor" stroke-width="6" stroke-linejoin="round"/></symbol>
<symbol id="i-graph" viewBox="0 0 190 184" fill="none" xmlns="http://www.w3.org/2000/svg"><path d="M72 60H17C9.268 60 3 66.268 3 74v93c0 7.732 6.268 14 14 14h55c7.732 0 14-6.268 14-14V74c0-7.732-6.268-14-14-14z" stroke="currentColor" stroke-width="6" stroke-linejoin="round"/><path d="M107.5 3v50.5m0-50.5C88.911 3 72.668 13.043 63.902 28M107.5 3c13.276 0 25.356 5.123 34.37 13.5M57.414 60A50.992 50.992 0 0157 53.5c0-9.302 2.515-18.016 6.902-25.5M86 99.208A50.299 50.299 0 00107.5 104c19.806 0 36.949-11.402 45.223-28m0 0L107.5 53.5M152.723 76a50.176 50.176 0 004.863-16M107.5 53.5l47-18.51m0 0A50.37 50.37 0 01158 53.5c0 2.202-.141 4.372-.414 6.5M154.5 34.99a50.592 50.592 0 00-12.63-18.49M63.902 28L53.5 16h-18M29 16h-6.5m119.37.5L152 3.5h19m6.5 0h6M157.586 60l9.914 9.5h10m6 0h6.5" stroke="currentColor" stroke-width="6"/><path d="M54 164h19v-38m-19 38v-19m0 19H35m19-56h19v18m-19-18v37m0-37H35m-19 18v-18h19m-19 18h57m-57 0v19m0 0v19h19m-19-19h38m-19 19v-56m35 73h47m0 0h32m-32 0v-13m0-38H86v12.5h31m0-12.5v12.5m0-12.5h16m16 51h37.5v-13M149 181v-13m0-38v11.5m0-11.5h-16m16 0h15m-15 11.5h37.5m-37.5 0V155m37.5-13.5V130H164m22.5 11.5V155m-37.5 0h37.5m-37.5 0v13m37.5-13v13m0 0H149m-32 0H86v-13h31m0 13v-13m0 0v-12.5m16-12.5c10.4 0 17-14.167 19-20v-8h28.5v8c-.667 5.833-4.9 20-16.5 20M16 76h57v13c-22.982 8.93-35.551 9.26-57 0V76z" stroke="currentColor" stroke-width="6" stroke-linejoin="round"/></symbol>
<symbol id="i-handcuffs" viewBox="0 0 201 199" fill="none" xmlns="http://www.w3.org/2000/svg"><circle cx="48" cy="150" r="32" stroke="currentColor" stroke-width="6"/><path d="M41.5 88.5h-13v20.933C13.412 116.699 3 132.133 3 150c0 24.853 20.147 45 45 45s45-20.147 45-45c0-17.867-10.412-33.301-25.5-40.567V88.5h-14m-12 0v-5c1.046-3.639 2.185-5.13 6-6 4.45 1.194 5.552 2.627 6 6v5m-12 0h12" stroke="currentColor" stroke-width="6" stroke-linejoin="round"/><path d="M49 195c24.853 0 45-20.147 45-45 0-17.867-10.412-33.301-25.5-40.567V88.5h-14M49 195c-24.853 0-45-20.147-45-45 0-17.867 10.412-33.301 25.5-40.567V88.5h13M49 195c2.74-.547 4.17-1.143 5.5-5.5-.465-4.394-1.684-5.976-5.5-7.5m-6.5-93.5v-5c1.046-3.639 2.185-5.13 6-6 4.45 1.194 5.552 2.627 6 6v5m-12 0h12m0 13.5v-1.5 3.5-4" stroke="currentColor" stroke-width="6" stroke-linejoin="round"/><circle cx="152" cy="150.5" r="32" stroke="currentColor" stroke-width="6"/><path d="M146.5 89h-13v20.933c-15.088 7.266-25.5 22.7-25.5 40.567 0 23.505 18.021 42.801 41 44.825M146.5 89v-5c1.046-3.639 2.185-5.13 6-6 4.451 1.194 5.552 2.627 6 6v5m-12 0h12m0 0h14v20.933c15.088 7.266 25.5 22.7 25.5 40.567 0 24.853-20.147 45-45 45-1.348 0-2.682-.059-4-.175m4-12.825c-3.771.596-5.21 1.945-7 5.5-.186 3.972.572 5.489 3 7.325m-3-93.825V100v3.5V99" stroke="currentColor" stroke-width="6" stroke-linejoin="round"/><circle cx="100" cy="26" r="23" stroke="currentColor" stroke-width="6" stroke-linejoin="round"/><path d="M77 25.5v5.25m46-5.25v5.25m-23-3.25V35 17.5v4M48 78c.804-11.213 1.89-17.528 8.5-29 5.992-8.337 10.412-12.366 20.5-18.25m0 0V36c0 9.509 5.77 17.67 14 21.172M152.5 78c-.342-12.097-2.232-18.478-9-29-6.444-8.383-10.662-12.599-20.5-18.25m0 0V36c0 9.119-5.307 16.998-13 20.718M91 47v10.172m0 0A22.927 22.927 0 00100 59c3.584 0 6.976-.82 10-2.282M110 47v9.718" stroke="currentColor" stroke-width="6" stroke-linejoin="round"/></symbol>
<symbol id="i-hands" viewBox="0 0 166 203" fill="none" xmlns="http://www.w3.org/2000/svg"><path d="M105 82l-2-2 11-11 48.5 48.5-11 11-2-2M105 82l-6 6 4 4m2-10l44.5 44.5m0 0l-6 6-4-4M60.5 82l2-2-11-11L3 117.5l11 11 2-2M60.5 82l6 6-4 4m-2-10L16 126.5m0 0l6 6 4.5-4.5m36-36l20 11.5M62.5 92l-36 36m56-24.5l2.5-2 18-9.5m-20.5 11.5l-19 20c-2.8 4.323-2.111 6.357.5 11 4.603 1.934 6.532 2.565 10.5.5L91 118h5.5l30.5 30.5M103 92l36.5 36.5m-17.5 34c4.22 2.751 6.266 2.573 9.5 0 1.983-3.709 2.298-5.792 0-9.5l-4.5-4.5m-5 14c2.288 5.281 2.469 7.952 0 12-4.25 2.942-6.758 3.061-11.5 0m11.5-12l-6-6 8 8m-13.5 10c2.232 5.076 2.482 7.66 0 11.5-3.708 3.358-6.05 2.989-10.5 0m10.5-11.5l-6-6 8 8M100 186c2.725 5.161 2.942 7.825 0 12-6.088 2.991-10.622.787-14-2m14-10l-6-6 8.5 9M86 196c-5.896 1.687-7.099 3.888-12.5 2-3.927-5.248-3.725-8.309.5-14m12 12c3.15-4.465 3.964-7.055 2-12-4.7-3.789-7.82-3.521-14 0m-47.5-56l14 22m0 0c-4.21 5.011-4.104 7.726-2 12.5 4.355 3.2 7.17 3.346 13 0m-11-12.5c5.13-3.792 7.85-3.665 12.5-.5 3.412 5.772 2.245 8.471-1.5 13m0 0c-4.114 4.908-3.852 7.505-1 12 5.073 3.151 7.634 2.332 12-1m-11-11c4.991-4.545 7.742-5.466 12.5-2 3.593 5.048 2.487 7.899-1.5 13m0 0c-3.592 4.888-3.938 7.622-1 12.5 4.713 2.094 7.435 1.912 12.5-2m-11.5-10.5c4.739-4.073 7.369-4.746 12-2.5 4.079 5.354 3.167 8.147-.5 13m65.5-55.5l-12.5 20M114.5 34.5C114.5 51.897 100.397 66 83 66S51.5 51.897 51.5 34.5 65.603 3 83 3s31.5 14.103 31.5 31.5z" stroke="currentColor" stroke-width="6" stroke-linejoin="round"/><path d="M83 35.5V20v30h12-25.5H72M72.5 34.5h2H65h2.5M98.5 34.5h2H91h2.5M94 24h2-9.5H89M78 24h2-9.5H73" stroke="currentColor" stroke-width="6" stroke-linejoin="round"/></symbol>
<symbol id="i-house" viewBox="0 0 193 187" fill="none" xmlns="http://www.w3.org/2000/svg"><path d="M129 35.5L96.5 3l-93 93H27v88h50v-55.5h41.5V184h50V96h21L159 65.5m-30-30v-18h30v48m-30-30l30 30" stroke="currentColor" stroke-width="6" stroke-linejoin="round"/></symbol>
<symbol id="i-logo" viewBox="0 0 98 98" fill="none" xmlns="http://www.w3.org/2000/svg"><g filter="url(#filter0_d_124_99)"><circle cx="49" cy="45" r="44.5" fill="#2E3146" stroke="#CACED5"/><path d="M90.891 45c0 23.136-18.755 41.891-41.891 41.891S7.109 68.136 7.109 45 25.864 3.109 48.999 3.109c23.137 0 41.892 18.755 41.892 41.891z" fill="#CACED5" stroke="#CACED5"/><g filter="url(#filter1_d_124_99)"><mask id="a" maskUnits="userSpaceOnUse" x="22.239" y="30.425" width="58" height="41" fill="#000"><path fill="#fff" d="M22.239 30.425h58v41h-58z"/><path d="M78.776 68.505c-.04.027-.224.12-.55.282-.326.16-.754.334-1.284.522a14.99 14.99 0 01-1.814.502c-.68.16-1.386.241-2.12.241-1.195 0-2.269-.207-3.22-.623a6.764 6.764 0 01-2.425-1.767c-.652-.75-1.155-1.661-1.508-2.733-.354-1.058-.53-2.236-.53-3.535 0-1.246.156-2.612.468-4.099.313-1.5.72-3.04 1.223-4.62a73.345 73.345 0 011.692-4.741c.639-1.58 1.277-3.08 1.916-4.5a131.49 131.49 0 011.854-3.918 100.973 100.973 0 011.508-2.973c-.76.857-1.63 1.848-2.608 2.973a175.367 175.367 0 00-3.139 3.677 227.72 227.72 0 00-3.444 4.259 194.965 194.965 0 00-3.628 4.7 192.568 192.568 0 00-3.607 5.003 120.72 120.72 0 00-3.424 5.143l-.978-.322c.203-2.183.536-4.346.998-6.489a92.192 92.192 0 011.59-6.207 88.09 88.09 0 011.875-5.605 110.71 110.71 0 011.895-4.701 65.355 65.355 0 00-2.73 4.018 348.574 348.574 0 00-2.732 4.44 304.11 304.11 0 01-2.853 4.58 75.22 75.22 0 01-3.057 4.42 43.694 43.694 0 01-3.363 3.957 23.004 23.004 0 01-3.75 3.174 17.496 17.496 0 01-4.239 2.15c-1.494.522-3.098.783-4.81.783-1.318 0-2.513-.194-3.587-.582-1.073-.389-1.997-.924-2.771-1.607a6.86 6.86 0 01-1.753-2.37 6.949 6.949 0 01-.632-2.954c0-1.031.17-1.962.51-2.792a7.5 7.5 0 011.324-2.23 8.591 8.591 0 011.936-1.688 12.393 12.393 0 012.344-1.185 13.978 13.978 0 014.87-.904c1.577 0 3.085.187 4.526.562 1.44.362 2.826 1.011 4.157 1.949l-.713.783c-.014-.013-.19-.133-.53-.361-.34-.241-.829-.502-1.467-.784-.639-.28-1.434-.535-2.385-.763-.937-.228-2.01-.342-3.22-.342-1.168 0-2.303.154-3.404.463a8.784 8.784 0 00-2.893 1.406 6.902 6.902 0 00-1.998 2.35c-.502.938-.754 2.043-.754 3.315 0 .91.177 1.754.53 2.531.367.777.87 1.447 1.508 2.01.639.575 1.406 1.024 2.303 1.345.897.322 1.889.482 2.976.482 1.63 0 3.193-.341 4.687-1.024 1.495-.683 2.935-1.607 4.32-2.773 1.387-1.165 2.718-2.524 3.995-4.078a66.116 66.116 0 003.71-4.922 112.586 112.586 0 003.464-5.323c1.115-1.822 2.195-3.576 3.24-5.264a137.89 137.89 0 013.058-4.76c.992-1.487 1.963-2.766 2.914-3.838l.917.543a377.893 377.893 0 00-1.549 4.74 805.975 805.975 0 00-1.14 3.577 639.71 639.71 0 01-.816 2.671c-.217.75-.408 1.42-.57 2.01-.164.589-.313 1.124-.45 1.606-.121.47-.25.938-.386 1.407a32.66 32.66 0 01-.428 1.486c-.163.523-.36 1.132-.591 1.828-.231.684-.503 1.48-.816 2.391-.312.897-.693 1.962-1.14 3.194 1.14-1.7 2.309-3.375 3.505-5.022a223.2 223.2 0 013.607-4.781 260.854 260.854 0 013.505-4.42 358.08 358.08 0 013.261-3.917 408.067 408.067 0 012.833-3.275c.87-.991 1.624-1.835 2.262-2.531a580.51 580.51 0 001.488-1.627l.57-.603.857.623a758.336 758.336 0 00-2.385 5.886 799.83 799.83 0 00-2.282 5.725 262.068 262.068 0 00-2.018 5.384 101.32 101.32 0 00-1.63 4.862 51.194 51.194 0 00-1.101 4.118c-.258 1.232-.387 2.29-.387 3.174 0 1.045.122 1.99.367 2.833.258.844.625 1.56 1.1 2.15a4.646 4.646 0 001.753 1.345c.706.322 1.501.482 2.384.482.666 0 1.311-.073 1.936-.22a15.41 15.41 0 001.692-.483c.49-.174.883-.334 1.182-.482a6.03 6.03 0 01.469-.22l.53.903z"/></mask><path d="M78.776 68.505c-.04.027-.224.12-.55.282-.326.16-.754.334-1.284.522a14.99 14.99 0 01-1.814.502c-.68.16-1.386.241-2.12.241-1.195 0-2.269-.207-3.22-.623a6.764 6.764 0 01-2.425-1.767c-.652-.75-1.155-1.661-1.508-2.733-.354-1.058-.53-2.236-.53-3.535 0-1.246.156-2.612.468-4.099.313-1.5.72-3.04 1.223-4.62a73.345 73.345 0 011.692-4.741c.639-1.58 1.277-3.08 1.916-4.5a131.49 131.49 0 011.854-3.918 100.973 100.973 0 011.508-2.973c-.76.857-1.63 1.848-2.608 2.973a175.367 175.367 0 00-3.139 3.677 227.72 227.72 0 00-3.444 4.259 194.965 194.965 0 00-3.628 4.7 192.568 192.568 0 00-3.607 5.003 120.72 120.72 0 00-3.424 5.143l-.978-.322c.203-2.183.536-4.346.998-6.489a92.192 92.192 0 011.59-6.207 88.09 88.09 0 011.875-5.605 110.71 110.71 0 011.895-4.701 65.355 65.355 0 00-2.73 4.018 348.574 348.574 0 00-2.732 4.44 304.11 304.11 0 01-2.853 4.58 75.22 75.22 0 01-3.057 4.42 43.694 43.694 0 01-3.363 3.957 23.004 23.004 0 01-3.75 3.174 17.496 17.496 0 01-4.239 2.15c-1.494.522-3.098.783-4.81.783-1.318 0-2.513-.194-3.587-.582-1.073-.389-1.997-.924-2.771-1.607a6.86 6.86 0 01-1.753-2.37 6.949 6.949 0 01-.632-2.954c0-1.031.17-1.962.51-2.792a7.5 7.5 0 011.324-2.23 8.591 8.591 0 011.936-1.688 12.393 12.393 0 012.344-1.185 13.978 13.978 0 014.87-.904c1.577 0 3.085.187 4.526.562 1.44.362 2.826 1.011 4.157 1.949l-.713.783c-.014-.013-.19-.133-.53-.361-.34-.241-.829-.502-1.467-.784-.639-.28-1.434-.535-2.385-.763-.937-.228-2.01-.342-3.22-.342-1.168 0-2.303.154-3.404.463a8.784 8.784 0 00-2.893 1.406 6.902 6.902 0 00-1.998 2.35c-.502.938-.754 2.043-.754 3.315 0 .91.177 1.754.53 2.531.367.777.87 1.447 1.508 2.01.639.575 1.406 1.024 2.303 1.345.897.322 1.889.482 2.976.482 1.63 0 3.193-.341 4.687-1.024 1.495-.683 2.935-1.607 4.32-2.773 1.387-1.165 2.718-2.524 3.995-4.078a66.116 66.116 0 003.71-4.922 112.586 112.586 0 003.464-5.323c1.115-1.822 2.195-3.576 3.24-5.264a137.89 137.89 0 013.058-4.76c.992-1.487 1.963-2.766 2.914-3.838l.917.543a377.893 377.893 0 00-1.549 4.74 805.975 805.975 0 00-1.14 3.577 639.71 639.71 0 01-.816 2.671c-.217.75-.408 1.42-.57 2.01-.164.589-.313 1.124-.45 1.606-.121.47-.25.938-.386 1.407a32.66 32.66 0 01-.428 1.486c-.163.523-.36 1.132-.591 1.828-.231.684-.503 1.48-.816 2.391-.312.897-.693 1.962-1.14 3.194 1.14-1.7 2.309-3.375 3.505-5.022a223.2 223.2 0 013.607-4.781 260.854 260.854 0 013.505-4.42 358.08 358.08 0 013.261-3.917 408.067 408.067 0 012.833-3.275c.87-.991 1.624-1.835 2.262-2.531a580.51 580.51 0 001.488-1.627l.57-.603.857.623a758.336 758.336 0 00-2.385 5.886 799.83 799.83 0 00-2.282 5.725 262.068 262.068 0 00-2.018 5.384 101.32 101.32 0 00-1.63 4.862 51.194 51.194 0 00-1.101 4.118c-.258 1.232-.387 2.29-.387 3.174 0 1.045.122 1.99.367 2.833.258.844.625 1.56 1.1 2.15a4.646 4.646 0 001.753 1.345c.706.322 1.501.482 2.384.482.666 0 1.311-.073 1.936-.22a15.41 15.41 0 001.692-.483c.49-.174.883-.334 1.182-.482a6.03 6.03 0 01.469-.22l.53.903z" fill="#A51C30"/><path d="M78.776 68.505c-.04.027-.224.12-.55.282-.326.16-.754.334-1.284.522a14.99 14.99 0 01-1.814.502c-.68.16-1.386.241-2.12.241-1.195 0-2.269-.207-3.22-.623a6.764 6.764 0 01-2.425-1.767c-.652-.75-1.155-1.661-1.508-2.733-.354-1.058-.53-2.236-.53-3.535 0-1.246.156-2.612.468-4.099.313-1.5.72-3.04 1.223-4.62a73.345 73.345 0 011.692-4.741c.639-1.58 1.277-3.08 1.916-4.5a131.49 131.49 0 011.854-3.918 100.973 100.973 0 011.508-2.973c-.76.857-1.63 1.848-2.608 2.973a175.367 175.367 0 00-3.139 3.677 227.72 227.72 0 00-3.444 4.259 194.965 194.965 0 00-3.628 4.7 192.568 192.568 0 00-3.607 5.003 120.72 120.72 0 00-3.424 5.143l-.978-.322c.203-2.183.536-4.346.998-6.489a92.192 92.192 0 011.59-6.207 88.09 88.09 0 011.875-5.605 110.71 110.71 0 011.895-4.701 65.355 65.355 0 00-2.73 4.018 348.574 348.574 0 00-2.732 4.44 304.11 304.11 0 01-2.853 4.58 75.22 75.22 0 01-3.057 4.42 43.694 43.694 0 01-3.363 3.957 23.004 23.004 0 01-3.75 3.174 17.496 17.496 0 01-4.239 2.15c-1.494.522-3.098.783-4.81.783-1.318 0-2.513-.194-3.587-.582-1.073-.389-1.997-.924-2.771-1.607a6.86 6.86 0 01-1.753-2.37 6.949 6.949 0 01-.632-2.954c0-1.031.17-1.962.51-2.792a7.5 7.5 0 011.324-2.23 8.591 8.591 0 011.936-1.688 12.393 12.393 0 012.344-1.185 13.978 13.978 0 014.87-.904c1.577 0 3.085.187 4.526.562 1.44.362 2.826 1.011 4.157 1.949l-.713.783c-.014-.013-.19-.133-.53-.361-.34-.241-.829-.502-1.467-.784-.639-.28-1.434-.535-2.385-.763-.937-.228-2.01-.342-3.22-.342-1.168 0-2.303.154-3.404.463a8.784 8.784 0 00-2.893 1.406 6.902 6.902 0 00-1.998 2.35c-.502.938-.754 2.043-.754 3.315 0 .91.177 1.754.53 2.531.367.777.87 1.447 1.508 2.01.639.575 1.406 1.024 2.303 1.345.897.322 1.889.482 2.976.482 1.63 0 3.193-.341 4.687-1.024 1.495-.683 2.935-1.607 4.32-2.773 1.387-1.165 2.718-2.524 3.995-4.078a66.116 66.116 0 003.71-4.922 112.586 112.586 0 003.464-5.323c1.115-1.822 2.195-3.576 3.24-5.264a137.89 137.89 0 013.058-4.76c.992-1.487 1.963-2.766 2.914-3.838l.917.543a377.893 377.893 0 00-1.549 4.74 805.975 805.975 0 00-1.14 3.577 639.71 639.71 0 01-.816 2.671c-.217.75-.408 1.42-.57 2.01-.164.589-.313 1.124-.45 1.606-.121.47-.25.938-.386 1.407a32.66 32.66 0 01-.428 1.486c-.163.523-.36 1.132-.591 1.828-.231.684-.503 1.48-.816 2.391-.312.897-.693 1.962-1.14 3.194 1.14-1.7 2.309-3.375 3.505-5.022a223.2 223.2 0 013.607-4.781 260.854 260.854 0 013.505-4.42 358.08 358.08 0 013.261-3.917 408.067 408.067 0 012.833-3.275c.87-.991 1.624-1.835 2.262-2.531a580.51 580.51 0 001.488-1.627l.57-.603.857.623a758.336 758.336 0 00-2.385 5.886 799.83 799.83 0 00-2.282 5.725 262.068 262.068 0 00-2.018 5.384 101.32 101.32 0 00-1.63 4.862 51.194 51.194 0 00-1.101 4.118c-.258 1.232-.387 2.29-.387 3.174 0 1.045.122 1.99.367 2.833.258.844.625 1.56 1.1 2.15a4.646 4.646 0 001.753 1.345c.706.322 1.501.482 2.384.482.666 0 1.311-.073 1.936-.22a15.41 15.41 0 001.692-.483c.49-.174.883-.334 1.182-.482a6.03 6.03 0 01.469-.22l.53.903z" stroke="#CACED5" stroke-width="2" mask="url(#a)"/></g><g filter="url(#filter2_d_124_99)"><mask id="b" maskUnits="userSpaceOnUse" x="9.848" y="14.58" width="61" height="37" fill="#000"><path fill="#fff" d="M9.848 14.58h61v37h-61z"/><path d="M46.697 18.734c-.802.294-1.542.535-2.221.723-.666.187-1.298.335-1.896.442-.584.107-1.155.18-1.712.22-.543.041-1.1.061-1.671.061-.924 0-1.882-.06-2.874-.18-.992-.135-1.95-.202-2.873-.202-1.237 0-2.426.161-3.567.483-1.128.308-2.126.776-2.996 1.406a6.897 6.897 0 00-2.079 2.33c-.516.938-.774 2.036-.774 3.295 0 .763.122 1.46.367 2.09a4.427 4.427 0 001.06 1.586 4.748 4.748 0 001.691 1.025c.666.24 1.413.361 2.242.361.938 0 1.753-.114 2.446-.341.693-.228 1.263-.482 1.712-.764.462-.28.808-.542 1.039-.783l.387-.402.856.623c-.04.053-.23.241-.57.562-.34.322-.822.663-1.447 1.025-.612.362-1.373.69-2.283.984-.897.295-1.93.442-3.098.442-.76 0-1.542-.1-2.344-.301a6.16 6.16 0 01-2.16-1.025c-.652-.482-1.189-1.118-1.61-1.908-.421-.79-.632-1.768-.632-2.933 0-.951.15-1.828.449-2.632a8.063 8.063 0 011.222-2.19 8.816 8.816 0 011.875-1.727c.734-.51 1.522-.931 2.365-1.266.855-.335 1.76-.59 2.71-.763a16.038 16.038 0 012.894-.261c.421 0 .91.026 1.468.08.57.04 1.148.087 1.732.14.598.04 1.182.088 1.753.141.57.04 1.08.06 1.528.06.503 0 1.04-.026 1.61-.08a17.23 17.23 0 001.916-.341c.706-.161 1.48-.382 2.323-.663a41.58 41.58 0 002.833-1.125l.51.904-.428.422c-.286.28-.68.776-1.182 1.486-.503.71-1.094 1.68-1.773 2.913-.68 1.232-1.427 2.806-2.242 4.721a367.322 367.322 0 01-2.487 5.746 58.82 58.82 0 01-2.69 5.383 37.226 37.226 0 01-3.18 4.742 19.744 19.744 0 01-3.892 3.756c-1.44 1.058-3.057 1.882-4.85 2.471-1.78.603-3.798.904-6.053.904-1.346 0-2.589-.154-3.73-.462-1.128-.308-2.1-.756-2.914-1.346a6.337 6.337 0 01-1.916-2.11c-.462-.83-.693-1.767-.693-2.812 0-1.299.278-2.43.835-3.395a7.571 7.571 0 012.222-2.45c.924-.657 1.99-1.146 3.2-1.467a14.29 14.29 0 013.79-.502c1.25 0 2.507.12 3.77.361 1.264.241 2.48.583 3.649 1.025l-.387.984a14.731 14.731 0 00-2.874-.723 17.937 17.937 0 00-2.935-.261c-1.4 0-2.65.147-3.75.442-1.1.294-2.038.723-2.812 1.285a5.658 5.658 0 00-1.753 2.01c-.394.79-.591 1.673-.591 2.651 0 .978.23 1.815.693 2.511a5.622 5.622 0 001.834 1.728c.747.455 1.576.79 2.487 1.004.924.215 1.827.322 2.71.322 1.644 0 3.125-.221 4.443-.663a13.445 13.445 0 003.607-1.768 14.79 14.79 0 002.874-2.632 26.462 26.462 0 002.344-3.214 39.593 39.593 0 001.977-3.556 276.298 276.298 0 001.732-3.596c.965-2.196 1.95-4.265 2.955-6.207.421-.83.87-1.674 1.345-2.532.49-.857.985-1.674 1.488-2.45a30.403 30.403 0 011.508-2.17c.517-.67 1.012-1.219 1.488-1.647zm20.727 4.881a3.3 3.3 0 01.163-.341c.109-.214.224-.489.346-.824a7.94 7.94 0 00.347-1.165c.109-.429.163-.864.163-1.306 0-.455-.088-.87-.265-1.245a2.71 2.71 0 00-.693-.985 2.827 2.827 0 00-1.04-.643 3.524 3.524 0 00-1.304-.24c-.611 0-1.209.16-1.793.482-.57.32-1.175.85-1.814 1.587-.625.723-1.304 1.674-2.038 2.852a87.45 87.45 0 00-2.507 4.3c-.516.95-1.04 1.794-1.57 2.53a18.358 18.358 0 01-1.548 1.91 14.798 14.798 0 01-1.529 1.425c-.502.389-.991.717-1.467.985.448.522.822 1.172 1.12 1.949.313.763.47 1.707.47 2.832 0 .603-.082 1.266-.245 1.989a45.91 45.91 0 01-.51 2.19c-.176.736-.34 1.453-.489 2.15-.149.696-.224 1.312-.224 1.847 0 .724.109 1.306.326 1.748.218.442.496.784.836 1.025.34.254.706.422 1.1.502.408.08.789.12 1.142.12.584 0 1.141-.093 1.671-.28a8.489 8.489 0 001.447-.603c.49-.255.944-.556 1.366-.904l.672.823c-.04.027-.224.154-.55.382-.313.241-.734.495-1.264.763-.516.268-1.107.51-1.773.724a6.742 6.742 0 01-2.079.32 5.723 5.723 0 01-2.099-.38 4.977 4.977 0 01-1.671-1.086 5.271 5.271 0 01-1.1-1.667c-.272-.643-.408-1.36-.408-2.15 0-.75.095-1.493.285-2.23.19-.736.4-1.46.632-2.17.23-.709.441-1.399.632-2.068.19-.67.285-1.313.285-1.929 0-.536-.068-1.085-.204-1.647a4.294 4.294 0 00-.733-1.607c-.625.187-1.223.341-1.794.462-.57.12-1.223.18-1.956.18-.612 0-1.094-.066-1.447-.2-.354-.148-.619-.308-.795-.483a1.553 1.553 0 01-.326-.542 2.189 2.189 0 01-.062-.422c0-.562.252-1.038.755-1.426.516-.402 1.216-.603 2.099-.603.475 0 1.04.107 1.691.322.653.2 1.332.542 2.038 1.024a9.772 9.772 0 002.059-1.969 23.825 23.825 0 001.814-2.591c.57-.951 1.127-1.942 1.67-2.973.544-1.045 1.101-2.083 1.672-3.114 1.019-1.835 2.174-3.235 3.465-4.199 1.29-.977 2.656-1.466 4.096-1.466.625 0 1.237.1 1.834.301a4.948 4.948 0 011.63.844 4.22 4.22 0 011.142 1.386c.299.536.448 1.152.448 1.848 0 .509-.06 1.005-.183 1.487a9.394 9.394 0 01-.387 1.305c-.136.375-.272.69-.408.945-.122.24-.19.381-.204.422l-.937-.503zm-18.852 8.94a5.2 5.2 0 00-1.243-.683 3.66 3.66 0 00-1.386-.281c-.53 0-.944.094-1.243.281-.286.174-.428.382-.428.623 0 .147.095.294.285.442.204.147.598.22 1.182.22.421 0 .883-.046 1.386-.14a7.014 7.014 0 001.447-.462z"/></mask><path d="M46.697 18.734c-.802.294-1.542.535-2.221.723-.666.187-1.298.335-1.896.442-.584.107-1.155.18-1.712.22-.543.041-1.1.061-1.671.061-.924 0-1.882-.06-2.874-.18-.992-.135-1.95-.202-2.873-.202-1.237 0-2.426.161-3.567.483-1.128.308-2.126.776-2.996 1.406a6.897 6.897 0 00-2.079 2.33c-.516.938-.774 2.036-.774 3.295 0 .763.122 1.46.367 2.09a4.427 4.427 0 001.06 1.586 4.748 4.748 0 001.691 1.025c.666.24 1.413.361 2.242.361.938 0 1.753-.114 2.446-.341.693-.228 1.263-.482 1.712-.764.462-.28.808-.542 1.039-.783l.387-.402.856.623c-.04.053-.23.241-.57.562-.34.322-.822.663-1.447 1.025-.612.362-1.373.69-2.283.984-.897.295-1.93.442-3.098.442-.76 0-1.542-.1-2.344-.301a6.16 6.16 0 01-2.16-1.025c-.652-.482-1.189-1.118-1.61-1.908-.421-.79-.632-1.768-.632-2.933 0-.951.15-1.828.449-2.632a8.063 8.063 0 011.222-2.19 8.816 8.816 0 011.875-1.727c.734-.51 1.522-.931 2.365-1.266.855-.335 1.76-.59 2.71-.763a16.038 16.038 0 012.894-.261c.421 0 .91.026 1.468.08.57.04 1.148.087 1.732.14.598.04 1.182.088 1.753.141.57.04 1.08.06 1.528.06.503 0 1.04-.026 1.61-.08a17.23 17.23 0 001.916-.341c.706-.161 1.48-.382 2.323-.663a41.58 41.58 0 002.833-1.125l.51.904-.428.422c-.286.28-.68.776-1.182 1.486-.503.71-1.094 1.68-1.773 2.913-.68 1.232-1.427 2.806-2.242 4.721a367.322 367.322 0 01-2.487 5.746 58.82 58.82 0 01-2.69 5.383 37.226 37.226 0 01-3.18 4.742 19.744 19.744 0 01-3.892 3.756c-1.44 1.058-3.057 1.882-4.85 2.471-1.78.603-3.798.904-6.053.904-1.346 0-2.589-.154-3.73-.462-1.128-.308-2.1-.756-2.914-1.346a6.337 6.337 0 01-1.916-2.11c-.462-.83-.693-1.767-.693-2.812 0-1.299.278-2.43.835-3.395a7.571 7.571 0 012.222-2.45c.924-.657 1.99-1.146 3.2-1.467a14.29 14.29 0 013.79-.502c1.25 0 2.507.12 3.77.361 1.264.241 2.48.583 3.649 1.025l-.387.984a14.731 14.731 0 00-2.874-.723 17.937 17.937 0 00-2.935-.261c-1.4 0-2.65.147-3.75.442-1.1.294-2.038.723-2.812 1.285a5.658 5.658 0 00-1.753 2.01c-.394.79-.591 1.673-.591 2.651 0 .978.23 1.815.693 2.511a5.622 5.622 0 001.834 1.728c.747.455 1.576.79 2.487 1.004.924.215 1.827.322 2.71.322 1.644 0 3.125-.221 4.443-.663a13.445 13.445 0 003.607-1.768 14.79 14.79 0 002.874-2.632 26.462 26.462 0 002.344-3.214 39.593 39.593 0 001.977-3.556 276.298 276.298 0 001.732-3.596c.965-2.196 1.95-4.265 2.955-6.207.421-.83.87-1.674 1.345-2.532.49-.857.985-1.674 1.488-2.45a30.403 30.403 0 011.508-2.17c.517-.67 1.012-1.219 1.488-1.647zm20.727 4.881a3.3 3.3 0 01.163-.341c.109-.214.224-.489.346-.824a7.94 7.94 0 00.347-1.165c.109-.429.163-.864.163-1.306 0-.455-.088-.87-.265-1.245a2.71 2.71 0 00-.693-.985 2.827 2.827 0 00-1.04-.643 3.524 3.524 0 00-1.304-.24c-.611 0-1.209.16-1.793.482-.57.32-1.175.85-1.814 1.587-.625.723-1.304 1.674-2.038 2.852a87.45 87.45 0 00-2.507 4.3c-.516.95-1.04 1.794-1.57 2.53a18.358 18.358 0 01-1.548 1.91 14.798 14.798 0 01-1.529 1.425c-.502.389-.991.717-1.467.985.448.522.822 1.172 1.12 1.949.313.763.47 1.707.47 2.832 0 .603-.082 1.266-.245 1.989a45.91 45.91 0 01-.51 2.19c-.176.736-.34 1.453-.489 2.15-.149.696-.224 1.312-.224 1.847 0 .724.109 1.306.326 1.748.218.442.496.784.836 1.025.34.254.706.422 1.1.502.408.08.789.12 1.142.12.584 0 1.141-.093 1.671-.28a8.489 8.489 0 001.447-.603c.49-.255.944-.556 1.366-.904l.672.823c-.04.027-.224.154-.55.382-.313.241-.734.495-1.264.763-.516.268-1.107.51-1.773.724a6.742 6.742 0 01-2.079.32 5.723 5.723 0 01-2.099-.38 4.977 4.977 0 01-1.671-1.086 5.271 5.271 0 01-1.1-1.667c-.272-.643-.408-1.36-.408-2.15 0-.75.095-1.493.285-2.23.19-.736.4-1.46.632-2.17.23-.709.441-1.399.632-2.068.19-.67.285-1.313.285-1.929 0-.536-.068-1.085-.204-1.647a4.294 4.294 0 00-.733-1.607c-.625.187-1.223.341-1.794.462-.57.12-1.223.18-1.956.18-.612 0-1.094-.066-1.447-.2-.354-.148-.619-.308-.795-.483a1.553 1.553 0 01-.326-.542 2.189 2.189 0 01-.062-.422c0-.562.252-1.038.755-1.426.516-.402 1.216-.603 2.099-.603.475 0 1.04.107 1.691.322.653.2 1.332.542 2.038 1.024a9.772 9.772 0 002.059-1.969 23.825 23.825 0 001.814-2.591c.57-.951 1.127-1.942 1.67-2.973.544-1.045 1.101-2.083 1.672-3.114 1.019-1.835 2.174-3.235 3.465-4.199 1.29-.977 2.656-1.466 4.096-1.466.625 0 1.237.1 1.834.301a4.948 4.948 0 011.63.844 4.22 4.22 0 011.142 1.386c.299.536.448 1.152.448 1.848 0 .509-.06 1.005-.183 1.487a9.394 9.394 0 01-.387 1.305c-.136.375-.272.69-.408.945-.122.24-.19.381-.204.422l-.937-.503zm-18.852 8.94a5.2 5.2 0 00-1.243-.683 3.66 3.66 0 00-1.386-.281c-.53 0-.944.094-1.243.281-.286.174-.428.382-.428.623 0 .147.095.294.285.442.204.147.598.22 1.182.22.421 0 .883-.046 1.386-.14a7.014 7.014 0 001.447-.462z" fill="#2E3146"/><path d="M46.697 18.734c-.802.294-1.542.535-2.221.723-.666.187-1.298.335-1.896.442-.584.107-1.155.18-1.712.22-.543.041-1.1.061-1.671.061-.924 0-1.882-.06-2.874-.18-.992-.135-1.95-.202-2.873-.202-1.237 0-2.426.161-3.567.483-1.128.308-2.126.776-2.996 1.406a6.897 6.897 0 00-2.079 2.33c-.516.938-.774 2.036-.774 3.295 0 .763.122 1.46.367 2.09a4.427 4.427 0 001.06 1.586 4.748 4.748 0 001.691 1.025c.666.24 1.413.361 2.242.361.938 0 1.753-.114 2.446-.341.693-.228 1.263-.482 1.712-.764.462-.28.808-.542 1.039-.783l.387-.402.856.623c-.04.053-.23.241-.57.562-.34.322-.822.663-1.447 1.025-.612.362-1.373.69-2.283.984-.897.295-1.93.442-3.098.442-.76 0-1.542-.1-2.344-.301a6.16 6.16 0 01-2.16-1.025c-.652-.482-1.189-1.118-1.61-1.908-.421-.79-.632-1.768-.632-2.933 0-.951.15-1.828.449-2.632a8.063 8.063 0 011.222-2.19 8.816 8.816 0 011.875-1.727c.734-.51 1.522-.931 2.365-1.266.855-.335 1.76-.59 2.71-.763a16.038 16.038 0 012.894-.261c.421 0 .91.026 1.468.08.57.04 1.148.087 1.732.14.598.04 1.182.088 1.753.141.57.04 1.08.06 1.528.06.503 0 1.04-.026 1.61-.08a17.23 17.23 0 001.916-.341c.706-.161 1.48-.382 2.323-.663a41.58 41.58 0 002.833-1.125l.51.904-.428.422c-.286.28-.68.776-1.182 1.486-.503.71-1.094 1.68-1.773 2.913-.68 1.232-1.427 2.806-2.242 4.721a367.322 367.322 0 01-2.487 5.746 58.82 58.82 0 01-2.69 5.383 37.226 37.226 0 01-3.18 4.742 19.744 19.744 0 01-3.892 3.756c-1.44 1.058-3.057 1.882-4.85 2.471-1.78.603-3.798.904-6.053.904-1.346 0-2.589-.154-3.73-.462-1.128-.308-2.1-.756-2.914-1.346a6.337 6.337 0 01-1.916-2.11c-.462-.83-.693-1.767-.693-2.812 0-1.299.278-2.43.835-3.395a7.571 7.571 0 012.222-2.45c.924-.657 1.99-1.146 3.2-1.467a14.29 14.29 0 013.79-.502c1.25 0 2.507.12 3.77.361 1.264.241 2.48.583 3.649 1.025l-.387.984a14.731 14.731 0 00-2.874-.723 17.937 17.937 0 00-2.935-.261c-1.4 0-2.65.147-3.75.442-1.1.294-2.038.723-2.812 1.285a5.658 5.658 0 00-1.753 2.01c-.394.79-.591 1.673-.591 2.651 0 .978.23 1.815.693 2.511a5.622 5.622 0 001.834 1.728c.747.455 1.576.79 2.487 1.004.924.215 1.827.322 2.71.322 1.644 0 3.125-.221 4.443-.663a13.445 13.445 0 003.607-1.768 14.79 14.79 0 002.874-2.632 26.462 26.462 0 002.344-3.214 39.593 39.593 0 001.977-3.556 276.298 276.298 0 001.732-3.596c.965-2.196 1.95-4.265 2.955-6.207.421-.83.87-1.674 1.345-2.532.49-.857.985-1.674 1.488-2.45a30.403 30.403 0 011.508-2.17c.517-.67 1.012-1.219 1.488-1.647zm20.727 4.881a3.3 3.3 0 01.163-.341c.109-.214.224-.489.346-.824a7.94 7.94 0 00.347-1.165c.109-.429.163-.864.163-1.306 0-.455-.088-.87-.265-1.245a2.71 2.71 0 00-.693-.985 2.827 2.827 0 00-1.04-.643 3.524 3.524 0 00-1.304-.24c-.611 0-1.209.16-1.793.482-.57.32-1.175.85-1.814 1.587-.625.723-1.304 1.674-2.038 2.852a87.45 87.45 0 00-2.507 4.3c-.516.95-1.04 1.794-1.57 2.53a18.358 18.358 0 01-1.548 1.91 14.798 14.798 0 01-1.529 1.425c-.502.389-.991.717-1.467.985.448.522.822 1.172 1.12 1.949.313.763.47 1.707.47 2.832 0 .603-.082 1.266-.245 1.989a45.91 45.91 0 01-.51 2.19c-.176.736-.34 1.453-.489 2.15-.149.696-.224 1.312-.224 1.847 0 .724.109 1.306.326 1.748.218.442.496.784.836 1.025.34.254.706.422 1.1.502.408.08.789.12 1.142.12.584 0 1.141-.093 1.671-.28a8.489 8.489 0 001.447-.603c.49-.255.944-.556 1.366-.904l.672.823c-.04.027-.224.154-.55.382-.313.241-.734.495-1.264.763-.516.268-1.107.51-1.773.724a6.742 6.742 0 01-2.079.32 5.723 5.723 0 01-2.099-.38 4.977 4.977 0 01-1.671-1.086 5.271 5.271 0 01-1.1-1.667c-.272-.643-.408-1.36-.408-2.15 0-.75.095-1.493.285-2.23.19-.736.4-1.46.632-2.17.23-.709.441-1.399.632-2.068.19-.67.285-1.313.285-1.929 0-.536-.068-1.085-.204-1.647a4.294 4.294 0 00-.733-1.607c-.625.187-1.223.341-1.794.462-.57.12-1.223.18-1.956.18-.612 0-1.094-.066-1.447-.2-.354-.148-.619-.308-.795-.483a1.553 1.553 0 01-.326-.542 2.189 2.189 0 01-.062-.422c0-.562.252-1.038.755-1.426.516-.402 1.216-.603 2.099-.603.475 0 1.04.107 1.691.322.653.2 1.332.542 2.038 1.024a9.772 9.772 0 002.059-1.969 23.825 23.825 0 001.814-2.591c.57-.951 1.127-1.942 1.67-2.973.544-1.045 1.101-2.083 1.672-3.114 1.019-1.835 2.174-3.235 3.465-4.199 1.29-.977 2.656-1.466 4.096-1.466.625 0 1.237.1 1.834.301a4.948 4.948 0 011.63.844 4.22 4.22 0 011.142 1.386c.299.536.448 1.152.448 1.848 0 .509-.06 1.005-.183 1.487a9.394 9.394 0 01-.387 1.305c-.136.375-.272.69-.408.945-.122.24-.19.381-.204.422l-.937-.503zm-18.852 8.94a5.2 5.2 0 00-1.243-.683 3.66 3.66 0 00-1.386-.281c-.53 0-.944.094-1.243.281-.286.174-.428.382-.428.623 0 .147.095.294.285.442.204.147.598.22 1.182.22.421 0 .883-.046 1.386-.14a7.014 7.014 0 001.447-.462z" stroke="#CACED5" stroke-width="2" mask="url(#b)"/></g></g></symbol>
<symbol id="i-mans-on-table" viewBox="0 0 202 146" fill="none" xmlns="http://www.w3.org/2000/svg"><path d="M40.5 37C47.956 37 54 29.613 54 20.5S47.956 4 40.5 4 27 11.387 27 20.5 33.044 37 40.5 37zm0 0v40.5m0-40.5c5.935 2.29 8.974 4.617 13.5 12v35M40.5 37c-10.144-.013-14.697 2.088-19.5 12v11m33 44.5V145m0-40.5c-1.728-8.212-4.49-11.329-13.5-13.5H27c-3.688-.208-5.517-.67-6-5.5V60m33 44.5H19.5M61 91h7c8.323 1.582 11.1 4.755 13.5 13.5v28l7.5 9H68v-37M21 60c-5.637-9.127-9.869-9.22-17.5-9l6 48c2.193 4.821 3.822 5.548 7 5.5h3M7 145l12.5-40.5M162.216 37c-7.412 0-13.421-7.387-13.421-16.5S154.804 4 162.216 4c7.413 0 13.421 7.387 13.421 16.5S169.629 37 162.216 37zm0 0v40.5m0-40.5c-5.9 2.29-8.921 4.617-13.421 12v35m13.421-47c10.085-.013 14.611 2.088 19.386 12v11m-32.807 44.5V145m0-40.5c1.718-8.212 4.464-11.329 13.421-13.5h13.421c3.667-.208 5.486-.67 5.965-5.5V60m-32.807 44.5h34.299M141.836 91h-6.959c-8.274 1.582-11.034 4.755-13.421 13.5v28l-7.456 9h20.877v-37M181.602 60c5.604-9.127 9.812-9.22 17.398-9l-5.965 48c-2.18 4.821-3.8 5.548-6.959 5.5h-2.982M195.52 145l-12.426-40.5M101 37c7.732 0 14-7.611 14-17s-6.268-17-14-17-14 7.611-14 17 6.268 17 14 17zm0 0c-9.872-.9-14.139 1.305-20 9v18m20-27c12.799-.435 16.693 2.024 20.5 9v18M101 37v27M64 74.5h37m37 0h-37m0 70.5V74.5" stroke="currentColor" stroke-width="6" stroke-linejoin="round"/></symbol>
<symbol id="i-mans" viewBox="0 0 201 201" fill="none" xmlns="http://www.w3.org/2000/svg"><path d="M36 61c8.284 0 15-7.387 15-16.5S44.284 28 36 28c-8.284 0-15 7.387-15 16.5S27.716 61 36 61zm0 0c-12.75-.22-18.14 1.398-24.5 7.5-5.394 5.885-6.65 8.706-8 13.5v39.5c.968 3.829 2.362 5.452 7 7H19M36 61c11.611-.622 17.213.77 25 7.5a64.46 64.46 0 012.166 2.5M19 128.5v-15m0 15v69h17.25M19 113.5h34.5m-34.5 0V85v1m34.5 27.5v15m0-15V99v1m0 28.5H62c4.005-.811 5.73-2.056 7-7v-8m-15.5 15v69H36.25m0 0v-68 70" stroke="currentColor" stroke-width="6" stroke-linejoin="round"/><path d="M81 118.5c-9.316-2.082-13.859-4.232-17.5-14.5V54c3.047-6.74 5.553-9.322 11.5-11.5h25.5m-19.5 76V106m0 12.5v79h19.5M81 106h38.5M81 106V58.5v22m38.5 25.5V58.5v22m0 25.5v11.5m-19-75H126c5.553 2.25 7.952 5.018 11.5 11.5v50c-3.836 8.977-8.203 11.709-18 14.5v-1m-19-75v17V40m-.5 31.5v-1 2-3m19.5 75.5v-2.5 3.5-5m-19-7v-9.5 73m0 0h19V155v11.5m0-38.5v6-16.5" stroke="currentColor" stroke-width="6" stroke-linejoin="round"/><path d="M164.5 61c8.284 0 15-7.387 15-16.5s-6.716-16.5-15-16.5c-8.284 0-15 7.387-15 16.5s6.716 16.5 15 16.5zm0 0c-12.75-.22-18.139 1.398-24.5 7.5a71.972 71.972 0 00-2.197 2.5M164.5 61c11.611-.622 17.213.77 25 7.5 4.469 4.927 6.193 7.89 8 13.5v39.5c-1.27 4.944-2.995 6.189-7 7H182m-34.5 0H139c-4.638-1.548-6.032-3.171-7-7v-9m15.5 16v-15m0 15v69h17.25m-17.25-84H182m-34.5 0v-15 1.5m34.5 13.5v15m0-15v-29 1m0 43v69h-17.25m0 0v-68 70" stroke="currentColor" stroke-width="6" stroke-linejoin="round"/><ellipse cx="100" cy="22" rx="18" ry="19" stroke="currentColor" stroke-width="6" stroke-linejoin="round"/></symbol>
<symbol id="i-parents" viewBox="0 0 200 141" fill="none" xmlns="http://www.w3.org/2000/svg"><circle cx="52" cy="29" r="26" stroke="currentColor" stroke-width="6" stroke-linejoin="round"/><path d="M102 138c-50.994-2.181-77.057-5.405-98.5-31C7.228 74.014 16.087 61.019 53 55c17.399 2.548 24.733 5.334 33 13" stroke="currentColor" stroke-width="6" stroke-linejoin="round"/><ellipse rx="25.5" ry="26" transform="matrix(-1 0 0 1 149.5 29)" stroke="currentColor" stroke-width="6" stroke-linejoin="round"/><path d="M100 138c50.218-2.181 75.884-5.405 97-31-3.671-32.986-12.396-45.981-48.746-52-17.134 2.548-24.356 5.334-32.498 13" stroke="currentColor" stroke-width="6" stroke-linejoin="round"/><path d="M100.5 97c10.217 0 18.5-8.283 18.5-18.5S110.717 60 100.5 60 82 68.283 82 78.5 90.283 97 100.5 97zm0 0c-24.854 4.922-31.702 13.885-33.5 39m33.5-39c25.211 5.32 33.242 13.526 35 39M168 75l-1-.5 1.5.5 1.5 1.5-.5-.5m7.5 7.5l-1.5-1.5 4.5 5.5c2.715 4.337 3.492 6.87 4 11.5v6-3" stroke="currentColor" stroke-width="6" stroke-linejoin="round"/></symbol>
<symbol id="i-police" viewBox="0 0 157 203" fill="none" xmlns="http://www.w3.org/2000/svg"><path d="M107.5 57.5v12l1-.5c2.56-1.434 6.693-3.144 9.5-2.766M49 57.5v12l-.5-.5c-2.7-1.038-7.08-2.296-10-2.034m0 0c-1.768.159-3 .875-3 2.534v10c0 2.4 5.04 4.333 7.559 5 .695 11.829 7.523 22.062 17.441 27.743m-22-45.277V51c25.911 13.683 47.053 17.292 79.5-.5v15.734m0 0c1.761.238 3 1.299 3 3.766v9.5c-.713 4.218-2.706 4.978-7.092 5.5-.899 12.202-8.327 22.648-18.908 28.055m-34.5-.812c5.278 3.023 11.43 4.757 18 4.757 5.957 0 11.57-1.426 16.5-3.945m-34.5-.812c0 5.55-1.176 11.132-2.047 14.257m20.047 17L58 128c.133-.4.288-.905.453-1.5m20.047 17l22-17c-.345-.311-.67-.645-.977-1m-21.023 18L67 147.682m11.5-4.182l10.803 4.182M95 113.055c.152 2.724 1.279 8.69 4.523 12.445M45.5 128L62 149.5l5-1.818M45.5 128l9.5-2.5 3.453 1M45.5 128l-22 3.5c-1.05.291-2.05.63-3 1.015m90-4.515L94 149.5l-4.697-1.818M110.5 128l-6-2.5h-4.977M110.5 128l25 3.5c.625.46 1.296.987 2 1.578M67 147.682l6.5 7.818m0 0H83m-9.5 0L67 200m16-44.5l6.303-7.818M83 155.5l6.303 44.5M3.5 167.5c-.586-4.935-.281-12.675 2.544-19.818M3.5 175.5V200H25m42 0h22.303M67 200H25m64.303 0H132m5.5-66.922c7.553 6.338 18.793 19.918 15.5 34.422V200h-21m5.5-66.922L131 140l12 12.5 6.5-3M6.044 147.682L14 152.5 25 140l-4.5-7.485M6.044 147.682c2.49-6.294 6.936-12.126 14.456-15.167M132 173v27M25 173v27m11.5-14.5V173H55v12.5H36.5zm65.5 0V173h18v12.5h-18z" stroke="currentColor" stroke-width="6" stroke-linejoin="round"/><path d="M38.5 47C34.333 44.167 26 37.5 26 33.5 29.218 18.716 47.755 4.635 74.437 3.55c28.995 0 54 13.708 54 30C127.124 38.034 123.2 47 118 47m-79.5 0h55m-55 0V33.55c31.047-11.278 48.453-11.436 79.5-.05V47m-15 0h15" stroke="currentColor" stroke-width="6"/></symbol>
<symbol id="i-scales-2" version="1.0" xmlns="http://www.w3.org/2000/svg" viewBox="0 0 1280 1274"><g fill="currentColor"><path d="M631.3 1.4C620.5 4.9 611 14 607 24.7c-5.5 14.4 1 31.8 15.3 40.9l3.8 2.5-.3 8.1-.3 8-6.1 1.9c-6.4 2-12 5.3-13.7 8-1.6 2.6 1.3 6.1 7.7 9.5 5.5 2.8 5.6 3 5.6 7.2 0 3.6-.5 4.7-4 7.8l-4 3.6v14.4c0 7.9-.3 14.4-.7 14.4-.4 0-4.7-2-9.7-4.4-30.4-14.9-63.8-22.4-94.1-21.2-33.9 1.3-51.3 7.3-99.7 34.3-11.4 6.3-24.2 12.9-28.5 14.6-7 2.8-8.8 3.1-18.3 3-13.1 0-24.1-3.1-38-10.5-27.3-14.6-25.9-14-32.6-13.6-8 .5-19.9 6.2-24.7 11.8-3.7 4.4-5.7 4.5-7.5.4-.8-1.5-2-2.4-3.4-2.4-5.7 0-21 11.9-22.3 17.2-1.1 4.3 2.9 11.4 11.1 19.5 9.2 9.4 11.8 9.7 15.2 2.3 3.4-7.5 5.6-7.6 13.9-.5 3.7 3.1 8.2 7.5 10 9.8 8 10.1 8.5 28.4.7 30.3-3.3.8-10.1-3.9-12.7-9-1.5-2.8-2.5-3.6-4.7-3.6-3.7 0-10.7 3.1-14.8 6.5l-3.2 2.7 5.7 11c5.4 10.3 6.9 12.3 15.1 18.5 3.1 2.3 5.2 6.9 2.8 6-1.7-.7-2.9 13.8-2 23 .8 7.7.3 8.3-7.2 8.3-2.8 0-6.5.5-8.1 1.1l-3 1-.6 38.7c-.7 46.7-1.8 55.8-7.4 60.2-2.4 1.8-2.4 1.8-9.8-1.7-7-3.3-7.6-3.4-11.2-2.2-6 2.1-6.3 2.5-6.3 9.9 0 5.3.4 7.3 2.1 9.4l2.1 2.7-12.7 32.7C163 568.3 140.2 628.8 75.7 804c-15.7 42.6-33.3 90.1-39 105.5l-10.5 28-6.3 2.5c-15.6 6.1-15.5 6.5 8.3 18.3 20.3 10.1 33.9 16.1 50.6 22.3 5.6 2.1 10 3.9 9.8 4.2-1.2 1.1-50.7-16.3-71.3-25.2-9.8-4.2-10.4-3.5-4.7 5.9 9.6 16 30.2 38.2 50.4 54.4 30.1 24.2 69 44.5 107.5 56 79.3 23.8 173.1 18.9 250.7-13 15.6-6.5 38.5-18 51.3-26 24.9-15.6 53.2-39.3 67.3-56.5 7.8-9.5 15.2-20.7 15.2-23 0-.8-2.6-.2-7.7 1.8-13.3 5.1-54.6 18.9-55.7 18.5-.5-.2 1.9-1.4 5.5-2.7 19.4-7.2 59.3-26.4 58.6-28.3-.6-2-13.5-5.2-35.5-8.7-7-1.1-14.4-2.3-16.6-2.5-2.1-.3-12.9-1.6-24-2.9-54.6-6.8-125.1-12.3-179.8-14.2l-19.8-.7-.2-229.8c-.2-126.5-.3-235.2-.3-241.7v-11.7l4.2-.3c4.1-.3 4.2-.4 4.9-4.8 1.1-7.6 0-22.5-2-26.3-3.3-6.3-3.4-39.9-.1-37.1 2.1 1.7 3.4 8.9 5 27.1 1.2 14.3 1.8 18 3.8 21.8 4.2 8.3 12.7 12.1 26.8 12.1 5.7 0 5.8.1 6.8 3.2 3 10.4 38.2 113.2 54.6 159.8 5.3 15.1 16.6 47.1 25 71 8.4 23.9 26.8 75.7 40.8 115 27.5 77 39.6 111.1 44.7 125.8 1.8 5.1 3.4 9.1 3.7 8.9.2-.2-10.6-32.1-24.1-70.8-13.4-38.7-30.8-88.9-38.6-111.4-7.8-22.6-18.2-52.6-23.1-66.8-4.9-14.1-12.9-37.3-17.8-51.5-4.9-14.1-19.4-55.9-32.1-92.7-12.7-36.9-25.1-72.5-27.4-79.3l-4.3-12.3 2.8-1.4c4.6-2.4 5.9-5.2 5.9-12.7 0-8.1-1.3-9.8-7.6-9.8-3 0-6.5 1-10.6 3.1l-6.1 3.1-3.4-3.4c-5.4-5.5-6.4-13.8-6.9-59.3l-.3-38-2.4-1.2c-1.3-.7-5.5-1.6-9.4-1.9l-7-.7.5-15.6c.5-16.5 1.2-20.1 3.7-20.1 3.1 0 11.4-5 14.4-8.7 4.9-5.9 6.6-12.3 6.5-23.8 0-12.2-1.9-19.6-8.1-32.8-5.5-11.5-5.2-12.7 2.4-11.1 2.7.6 13.6 3.9 24.3 7.3 25.1 7.9 37.5 10.5 51 10.5 12.8-.1 18.9-1.6 49.4-12.3 34.7-12.3 49.2-16 70.1-18.2 33.1-3.4 69.7 5.3 102.8 24.4l8.7 5.1v16.7c0 19 .3 20 8.5 23.9l4.4 2.1-3.3 4.7c-3.5 4.8-6.6 11.4-6.6 13.8 0 1.2 4.7 1.4 26.5 1.4 17.7 0 26.5-.3 26.5-1 0-1.7-4-9.1-7.6-14.2l-3.3-4.7 3.5-1.1c1.9-.7 5-2.6 6.9-4.5l3.5-3.2v-34l10.8-6.1c32.5-18.4 68.1-26.7 100.7-23.3 20.8 2.1 35.7 6 69 17.8 30.5 10.9 37.8 12.7 50.5 12.7 13.5 0 26-2.6 51-10.5 10.7-3.4 21.6-6.7 24.3-7.3 7.7-1.6 7.9-.4 2 12.1-14.3 30.5-9.1 58.6 11.8 64 4.2 1.1 4.6 2.6 5.2 21.4l.5 14.6-6.8.7c-3.8.3-8 1-9.4 1.6l-2.6 1v28.2c0 29.4-1.2 53-3 61.4-1.2 5.2-2.9 7.9-7 10.7-3.5 2.4-5.4 2.1-9.5-1.4-4.5-3.9-11.2-5.1-13.9-2.3-1.5 1.4-1.7 3-1.4 9.2.3 6.9.6 7.6 3.5 10.1l3.2 2.6-12.5 32c-34.9 89.1-62.1 161.4-128.4 341-17.5 47.3-36 97.4-41.1 111.4-7.1 19-9.9 25.6-11.4 26.2-1.1.4-5.2 1.7-9.1 2.9-7 2-13.4 5.4-14.1 7.6-.9 2.8 39.8 22.5 70.1 34 7.7 2.9 13.5 5.3 12.8 5.4-4.2.1-68.9-23.2-79.5-28.6-1.6-.9-3.1-1.4-3.3-1.2-.2.2.9 3.1 2.5 6.4 4.7 9.8 14.5 22.1 30.5 37.9 73.6 73.2 185.2 104.4 302.1 84.4 62.4-10.6 120.5-37 167-75.9 17.9-15 41.3-42 43.9-50.7l.7-2.3-6.8 2.7c-10 3.8-56.2 19.3-57.6 19.3-.7-.1 4.7-2.5 11.8-5.4 22.3-9 53.5-24 53.5-25.7 0-1.8-12.7-5.1-33-8.3-56.9-9.3-158-18.3-226.5-20.2l-24-.7.2-14.1c.2-7.8.7-47.9 1.3-89.1.6-41.3 1.5-101.3 2-133.5s1.4-94.1 2-137.5c.6-43.5 1.3-85.8 1.6-94.2l.6-15.2 3.2-.3 3.1-.3.3-12.7c.2-11.3 0-13.3-1.9-17.4-1.3-3-1.9-6-1.7-8.3.3-2 .1-7.7-.4-12.6-.5-5-.6-11.4-.3-14.3.6-4.7.9-5.2 3-5.2 5 0 6.9 6.3 8.9 29.6 1.6 18.2 3.1 23 8.9 28.1 4.6 4 10.1 5.6 18.4 5.1 3.4-.2 6.3-.3 6.3-.3-.1.8 45.1 132.2 60.8 177 24.9 70.7 31.1 88.4 56.5 159.5 28.9 81 46 129.2 50.7 142.8 1.8 5.1 3.4 9.1 3.6 8.9.4-.3-8.6-26.7-26.6-78.2-5.9-16.9-28.3-81.5-44-127-7.8-22.6-18.1-52.5-23-66.5-15.4-44.3-54.8-158.5-64.1-185.5-4.9-14.3-9.4-27-9.9-28.3-1.4-3.2-1.3-4 .9-4.7 3.2-1 5.4-7 4.7-12.9-.8-5.4-2.9-9.6-4.8-9.6-.7 0-4.7 1.7-9 3.7-7.7 3.6-7.9 3.6-11.3 2-4.1-1.9-6.4-5.2-7.7-10.9-2-9.1-3.8-32.5-4.3-56.8-.4-14-.8-27-1.1-28.7-.6-4.1-2.5-5.1-11.3-5.9l-7.1-.7v-9.8c0-7.8.3-9.9 1.4-9.9 1 0 1.6-1.9 2.1-6.2.8-6.6 1.6-7.8 10.7-15 2.2-1.7 5.5-6.6 9.1-13.6l5.7-11-3.2-2.7c-4.1-3.4-11.1-6.5-14.8-6.5-2.2 0-3.2.8-4.7 3.6-2.6 5.1-9.4 9.8-12.7 9-3.5-.9-5.6-5.4-5.6-11.9 0-10.5 4.3-18 16.3-28.2 8.2-7 10.2-7 13.7.5s7.7 6.5 17.2-3.9c6.8-7.5 10.2-14.2 9.3-17.9-1.3-5.2-16.6-17.2-21.9-17.2-1.1 0-3.2 1.5-4.7 3.2l-2.7 3.3-3.7-4.2c-5.1-6-16.7-11.6-25.1-12.1-5.9-.4-6.8-.2-15.1 4.3-23.2 12.6-27.4 14.6-35.8 17.1-7 2.1-11.2 2.7-19 2.8-13.1.1-19-2-45.1-16.6-47.2-26.2-62.8-32.1-91.4-34.9-33.8-3.2-69.7 3.8-103.6 20.2-5.5 2.7-10.4 4.9-10.7 4.9-.4 0-.7-6.4-.7-14.3 0-15.3-.4-16.5-6-20-2.2-1.4-2.5-2.2-2.2-5.9.4-4.1.7-4.5 6.4-7.8 6.8-3.9 8.4-6 6.8-9-1.2-2.2-9.3-6.7-15.5-8.5l-4-1.2-.3-8.1c-.3-7.9-.2-8.1 2.5-9.8 5.4-3.4 11.5-10 14.6-15.9 2.9-5.4 3.2-6.8 3.2-15 0-7.9-.4-9.6-2.8-14.4-8.3-15.6-26.8-24.5-41.4-19.7zm377.5 310.2c2.1.4 2.2.9 2.2 8.3 0 6.3-.3 8-1.6 8.5-2.3.9-14.7.7-16.2-.3-.9-.5-1.2-3-1-8.7l.3-7.9 4-.6c3.8-.5 7.2-.3 12.3.7zm-726.4.7c1.4 1 1.6 2.5 1.4 8.7l-.3 7.5-5.3.3c-3.1.2-6-.2-6.8-.9-1.9-1.5-2-15.5-.1-16.2 2.5-1 9.4-.7 11.1.6zm713.3 53.4c.5 1.6.8 9.8.8 18.3 0 13.2-.3 16-1.9 19-3.5 6.4-3.5 31 0 31 1.2 0 1.3 32 .8 241.7-.4 133-.7 241.9-.8 241.9 0 .1-19.5.7-43.2 1.3-59.3 1.6-106.4 4.5-141.4 8.6-17.9 2.2-38.6 5.3-45.2 6.9-3.8.9-5.8 1-5.8.3 0-.6 2.7-8.1 5.9-16.6 3.3-8.6 12.7-33.4 21-55.1 8.2-21.7 38.4-101.2 67.1-176.5 28.6-75.4 52.8-138.9 53.7-141.3.9-2.3 1.7-4.1 1.9-3.9.2.2-5.9 18.3-13.6 40.3-7.6 21.9-24.3 70-37 106.9-24.4 70.5-46.6 134.5-53 153-18 51.5-26 74.9-25.7 75.2.2.2 3-7 6.2-15.9 13.3-37.6 23-65.1 47.2-132.8 14-39.3 28.4-79.8 32-90 3.6-10.2 14.9-42.6 25.3-72s21.6-61.5 24.9-71.3c3.4-9.7 8.8-25.7 12.2-35.5 3.3-9.7 9.8-28.7 14.4-42.2 4.6-13.5 8.8-25.9 9.4-27.5 1.1-3.1 1.2-3.1 7.5-2.7 11 .7 20-4.9 22.7-14.1.5-1.7 1.6-10.2 2.4-18.9 1.8-18.8 3-24.9 5.6-28.3 2.7-3.4 5.6-3.3 6.6.2zM269.4 369c.3 2.2.1 7.1-.4 10.8-.6 3.7-1 10.3-.9 14.7.1 5.3-.4 9.4-1.4 12-1.1 2.7-1.6 7-1.5 13 .1 12.5.7 15 3.8 15 3 0 2.5-11 4 93.5.6 41.5 1.5 103.2 2 137s1.4 92.8 2 131c.5 38.2 1.2 81.2 1.6 95.6l.6 26.1-32.9.7c-98.5 2-176.1 8.5-213.1 17.8-2.3.6-4.5.8-4.8.5-.4-.3 2.8-9.5 6.9-20.4 4.2-10.9 14.8-38.9 23.7-62.3 8.9-23.4 17.8-47 20-52.5 2.1-5.5 7.5-19.7 11.9-31.5 4.5-11.8 9.5-24.9 11.1-29 2.9-7.6 6.8-17.8 16-42 2.8-7.4 6.7-17.6 8.6-22.5 1.9-5 24.1-63.2 49.3-129.5 32.7-85.8 46.3-120.6 47.5-120.8.9-.2 1.6-.1 1.6.1 0 .3-3.6 11-8.1 23.9-4.4 12.8-12.1 34.9-17 49-4.9 14.2-12.9 37.4-17.8 51.5-4.9 14.2-19.4 55.9-32.1 92.8-12.7 36.8-27.2 78.6-32.1 92.7-4.9 14.2-13 37.6-18 52-5 14.5-10.8 31.4-13 37.5-2.1 6.2-5.7 16.4-7.8 22.5C65 888.7 59 906.3 59.3 906.7c.2.2 4.3-10.8 9.1-24.4 4.9-13.7 21.3-59.9 36.6-102.8 53-148.6 80.2-226.3 106.5-303.8l16.2-47.9 5.4-.2c7.8-.5 16.5-3.3 20.5-6.8 6.2-5.4 7.4-9.2 9-27.7 1.5-18 2-21.2 3.6-25.4 1.5-3.8 2.4-3.4 3.2 1.3z"/><path d="M57.6 909.5c-.3.9-.6 2.2-.5 2.8 0 .7.5.1 1-1.2s.8-2.6.5-2.8c-.2-.2-.6.3-1 1.2zM55.6 915.5c-.9 2.6-.7 3.2.5 1.2.6-1 .9-2.1.6-2.3-.2-.3-.7.2-1.1 1.1zM615 671v399h-12.5c-6.9 0-12.5.3-12.5.7 0 .4 2.5 6.3 5.6 13.1l5.7 12.3-4.7 9.7c-5.5 11.5-3.3 10.6-29.9 12.2-17.9 1-37.4 2.8-53.1 5-39.3 5.5-76.6 16.6-80.6 24-.5 1-1 8.6-1 16.9v15l-5.7.7c-8.2.9-16.8 3.8-20.8 6.8-3 2.3-3.4 2.4-3.8.8-.3-.9-.5 9.9-.6 24l-.1 25.8 3.5 3.8c18.8 20.9 131.9 35 263.5 32.8 111.3-1.8 188.5-13.5 207.2-31.6l4.8-4.6v-26c0-16.4-.4-25.4-1-24.4-.8 1.2-1.3 1.1-3.3-.8-3.5-3.3-11.6-6.1-19.7-6.8l-7-.7v-31.5l-3.5-3c-13.9-12.3-73.1-23.4-141.7-26.8l-13.7-.7-5.9-10.6-5.8-10.6 4-6.5c4.4-7.3 8.6-15.9 8.6-17.8 0-.9-3.2-1.2-12.5-1.2H666V272h-51v399z"/><path d="M499.1 915.5c.1 1.9 1.8 5.1 1.8 3.5 0-.8-.4-2.2-.9-3-.5-.8-.9-1.1-.9-.5zM501 921.5c0 .5.5 1.7 1 2.5s1 1 1 .5c0-.6-.5-1.7-1-2.5s-1-1.1-1-.5zM1227 924.5c0 .5.5 1.7 1 2.5s1 1 1 .5c0-.6-.5-1.7-1-2.5s-1-1.1-1-.5z"/></g></symbol>
<symbol id="i-scales" viewBox="0 0 201 202" fill="none" xmlns="http://www.w3.org/2000/svg"><path d="M26 44l13 6.5L56 44h88.5l16.5 6.5 13-6.5M94 172V30.5M94 172h13m-13 0l-13.5 13.5M94 30.5h13m-13 0H83.5m10.5 0L89.5 13c1.638-6.148 3.219-8.938 10.5-9.5 6.678.298 9.047 2.467 11 9.5l-4 17.5m0 0V172m0-141.5h10M107 172l13.5 13.5m-40 0h40m-40 0h-19c-5.592 3.367-7.124 6.367-8 13h94c-.297-5.457-1.231-8.434-10-13h-17" stroke="currentColor" stroke-width="6" stroke-linejoin="round"/><path d="M3 125h73m-73 0c.428 11.26 4.012 15.56 16 20h41c11.661-4.406 15.424-8.613 16-20m-73 0l36-78.5L76 125M125 125.5h73m-73 0c.428 11.26 4.012 15.56 16 20h41c11.661-4.406 15.424-8.613 16-20m-73 0L161 47l37 78.5" stroke="currentColor" stroke-width="6" stroke-linejoin="round"/></symbol>
<symbol id="i-telegram" viewBox="0 0 24 24" fill="none" xmlns="http://www.w3.org/2000/svg"><path d="M20.665 3.717l-17.73 6.837c-1.21.486-1.203 1.16-.222 1.462l4.552 1.42L17.797 6.79c.498-.303.953-.14.579.192l-8.533 7.7H9.84l.002.002-.314 4.692c.46 0 .663-.211.92-.46l2.212-2.15 4.599 3.397c.848.467 1.457.227 1.668-.785L21.947 5.15c.309-1.24-.473-1.8-1.282-1.434z" fill="currentColor"/></symbol>
<symbol id="i-whatsapp" xmlns="http://www.w3.org/2000/svg" viewBox="0 0 24 24"><path fill="currentColor" d="M.057 24l1.687-6.163a11.867 11.867 0 01-1.587-5.946C.16 5.335 5.495 0 12.05 0a11.817 11.817 0 018.413 3.488 11.824 11.824 0 013.48 8.414c-.003 6.557-5.338 11.892-11.893 11.892a11.9 11.9 0 01-5.688-1.448L.057 24zm6.597-3.807c1.676.995 3.276 1.591 5.392 1.592 5.448 0 9.886-4.434 9.889-9.885.002-5.462-4.415-9.89-9.881-9.892-5.452 0-9.887 4.434-9.889 9.884-.001 2.225.651 3.891 1.746 5.634l-.999 3.648 3.742-.981zm11.387-5.464c-.074-.124-.272-.198-.57-.347-.297-.149-1.758-.868-2.031-.967-.272-.099-.47-.149-.669.149-.198.297-.768.967-.941 1.165-.173.198-.347.223-.644.074-.297-.149-1.255-.462-2.39-1.475-.883-.788-1.48-1.761-1.653-2.059-.173-.297-.018-.458.13-.606.134-.133.297-.347.446-.521.151-.172.2-.296.3-.495.099-.198.05-.372-.025-.521-.075-.148-.669-1.611-.916-2.206-.242-.579-.487-.501-.669-.51l-.57-.01c-.198 0-.52.074-.792.372s-1.04 1.016-1.04 2.479 1.065 2.876 1.213 3.074c.149.198 2.095 3.2 5.076 4.487.709.306 1.263.489 1.694.626.712.226 1.36.194 1.872.118.571-.085 1.758-.719 2.006-1.413.248-.695.248-1.29.173-1.414z"/></symbol>
</svg>